<?xml version="1.0" standalone="no"?><!DOCTYPE svg PUBLIC "-//W3C//DTD SVG 1.1//EN" "http://www.w3.org/Graphics/SVG/1.1/DTD/svg11.dtd"><svg t="1492654510734" class="icon" style="" viewBox="0 0 1024 1024" version="1.1" xmlns="http://www.w3.org/2000/svg" p-id="1861" xmlns:xlink="http://www.w3.org/1999/xlink" width="48" height="48"><defs><style type="text/css"></style></defs><path d="M945.063 122.32h-863.547c-31.373 0-56.812 25.437-56.812 56.812v22.725c0 31.373 25.437 56.812 56.812 56.812h863.541c31.373 0 56.812-25.437 56.812-56.812v-22.725c0.005-31.373-25.426-56.812-56.797-56.812zM945.063 440.461h-863.547c-31.373 0-56.812 25.437-56.812 56.812v22.725c0 31.373 25.437 56.812 56.812 56.812h863.541c31.373 0 56.812-25.437 56.812-56.812v-22.725c0.005-31.373-25.426-56.812-56.797-56.812zM945.063 758.62h-863.547c-31.373 0-56.812 25.437-56.812 56.812v22.725c0 31.373 25.437 56.812 56.812 56.812h863.541c31.373 0 56.812-25.426 56.812-56.812v-22.725c0.005-31.382-25.426-56.812-56.797-56.812z" p-id="1862" fill="#0793eb"></path></svg>